# xmcd
#
# Track frame offsets: 
#        150
#        15049
#        29224
#        49306
#        67327
#        87359
#        112067
#        130339
#        145333
#        164734
#        181473
#        198267
#        217446
#        235707
#        253648
#        269272
#        282423
#        293783
#        310159
#        326333
#
# Disc length: 4572 seconds
#
# Revision: 0
# Processed by: cddbd v1.5.2PL0 Copyright (c) Steve Scherf et al.
# Submitted via: ExactAudioCopy v0.99pb4
#
DISCID=4111da14
DTITLE=Various Artist - Bluesfest 2013 - Disc 2
DYEAR=2013
DGENRE=Blues
TTITLE0=Santana - Black Magic Woman
TTITLE1=The Stooges - I Wanna Be Your Dog
TTITLE2=Steve Miller Band - The Joker
TTITLE3=Wilco - I Might
TTITLE4=Joan Armatrading - Love And Affection
TTITLE5=Tedeschi Trucks Band - Bound For Glory
TTITLE6=Trombone Shorty - Buckjump
TTITLE7=The Cat Empire - Brighter Than Gold
TTITLE8=The Bamboos feat Tim Rogers - I Got Burned
TTITLE9=Bettye Lavette - Everything Is Broken
TTITLE10=Tony Joe White - Polk Salad Annie
TTITLE11=Xavier Rudd - Follow The Sun
TTITLE12=Busby Marou - Biding My Time
TTITLE13=Shuggie Otis - Strawberry Letter 23
TTITLE14=Soja - Not Done Yet
TTITLE15=Melbourne Ska Orchestra - The Best Things In Life Are Free
TTITLE16=JD McPherson - North Side Gal
TTITLE17=The Snowdroppers - White Dress
TTITLE18=King Cannons - The Brightest Light
TTITLE19=The Beards - You Should Consider Having Sex With A Bearded Ma
TTITLE19=n
EXTD=
EXTT0=
EXTT1=
EXTT2=
EXTT3=
EXTT4=
EXTT5=
EXTT6=
EXTT7=
EXTT8=
EXTT9=
EXTT10=
EXTT11=
EXTT12=
EXTT13=
EXTT14=
EXTT15=
EXTT16=
EXTT17=
EXTT18=
EXTT19=
PLAYORDER=
